<mxfile host="app.diagrams.net" modified="2022-11-21T08:45:48.863Z" agent="5.0 (Windows NT 10.0; Win64; x64) AppleWebKit/537.36 (KHTML, like Gecko) Chrome/107.0.0.0 Safari/537.36 Edg/107.0.1418.52" etag="j3igmBF-w1QvFqmFIdte" version="20.5.3" type="github">
  <diagram id="C5RBs43oDa-KdzZeNtuy" name="Page-1">
    <mxGraphModel dx="1550" dy="835" grid="1" gridSize="10" guides="1" tooltips="1" connect="1" arrows="1" fold="1" page="1" pageScale="1" pageWidth="827" pageHeight="1169" math="0" shadow="0">
      <root>
        <mxCell id="WIyWlLk6GJQsqaUBKTNV-0" />
        <mxCell id="WIyWlLk6GJQsqaUBKTNV-1" parent="WIyWlLk6GJQsqaUBKTNV-0" />
        <mxCell id="38O-XOo_rF_psrHgX0NA-13" style="edgeStyle=orthogonalEdgeStyle;rounded=0;orthogonalLoop=1;jettySize=auto;html=1;exitX=0.5;exitY=1;exitDx=0;exitDy=0;strokeWidth=2;fontSize=14;" edge="1" parent="WIyWlLk6GJQsqaUBKTNV-1" source="38O-XOo_rF_psrHgX0NA-1" target="38O-XOo_rF_psrHgX0NA-5">
          <mxGeometry relative="1" as="geometry" />
        </mxCell>
        <mxCell id="38O-XOo_rF_psrHgX0NA-1" value="开始" style="rounded=1;whiteSpace=wrap;html=1;strokeWidth=2;fontSize=14;" vertex="1" parent="WIyWlLk6GJQsqaUBKTNV-1">
          <mxGeometry x="270" y="220" width="120" height="60" as="geometry" />
        </mxCell>
        <mxCell id="38O-XOo_rF_psrHgX0NA-4" style="edgeStyle=orthogonalEdgeStyle;rounded=0;orthogonalLoop=1;jettySize=auto;html=1;exitX=0.5;exitY=1;exitDx=0;exitDy=0;strokeWidth=2;fontSize=14;" edge="1" parent="WIyWlLk6GJQsqaUBKTNV-1" source="38O-XOo_rF_psrHgX0NA-5" target="38O-XOo_rF_psrHgX0NA-7">
          <mxGeometry relative="1" as="geometry" />
        </mxCell>
        <mxCell id="38O-XOo_rF_psrHgX0NA-5" value="时间间隔:&lt;br style=&quot;font-size: 14px;&quot;&gt;endTime-startTime" style="rounded=0;whiteSpace=wrap;html=1;strokeWidth=2;fontSize=14;" vertex="1" parent="WIyWlLk6GJQsqaUBKTNV-1">
          <mxGeometry x="270" y="310" width="120" height="60" as="geometry" />
        </mxCell>
        <mxCell id="38O-XOo_rF_psrHgX0NA-6" value="" style="edgeStyle=orthogonalEdgeStyle;rounded=0;orthogonalLoop=1;jettySize=auto;html=1;strokeWidth=2;fontSize=14;" edge="1" parent="WIyWlLk6GJQsqaUBKTNV-1" source="38O-XOo_rF_psrHgX0NA-7" target="38O-XOo_rF_psrHgX0NA-9">
          <mxGeometry relative="1" as="geometry" />
        </mxCell>
        <mxCell id="38O-XOo_rF_psrHgX0NA-7" value="速率=时间间隔内数据大小/时间间隔" style="rounded=0;whiteSpace=wrap;html=1;strokeWidth=2;fontSize=14;" vertex="1" parent="WIyWlLk6GJQsqaUBKTNV-1">
          <mxGeometry x="270" y="410" width="120" height="60" as="geometry" />
        </mxCell>
        <mxCell id="38O-XOo_rF_psrHgX0NA-15" style="edgeStyle=orthogonalEdgeStyle;rounded=0;orthogonalLoop=1;jettySize=auto;html=1;exitX=0.5;exitY=1;exitDx=0;exitDy=0;strokeWidth=2;fontSize=14;" edge="1" parent="WIyWlLk6GJQsqaUBKTNV-1" source="38O-XOo_rF_psrHgX0NA-9" target="38O-XOo_rF_psrHgX0NA-14">
          <mxGeometry relative="1" as="geometry" />
        </mxCell>
        <mxCell id="38O-XOo_rF_psrHgX0NA-9" value="输出瞬时速率&lt;br style=&quot;font-size: 14px;&quot;&gt;emit sendV" style="rounded=0;whiteSpace=wrap;html=1;strokeWidth=2;fontSize=14;" vertex="1" parent="WIyWlLk6GJQsqaUBKTNV-1">
          <mxGeometry x="270" y="510" width="120" height="60" as="geometry" />
        </mxCell>
        <mxCell id="38O-XOo_rF_psrHgX0NA-14" value="结束" style="rounded=1;whiteSpace=wrap;html=1;strokeWidth=2;fontSize=14;" vertex="1" parent="WIyWlLk6GJQsqaUBKTNV-1">
          <mxGeometry x="270" y="610" width="120" height="60" as="geometry" />
        </mxCell>
      </root>
    </mxGraphModel>
  </diagram>
</mxfile>
